PathFileType	4	(X/Y/Z)	5_coords_data.trc
DataRate	CameraRate	NumFrames	NumMarkers	Units	OrigDataRate	OrigDataStartFrame	OrigNumFrames
30.0	30.0	5	21	m	30.0	48	57
Frame#	Time	THUMB_TIP	THUMB_IP	THUMB_MCP	THUMB_CMC	INDEX_TIP	INDEX_DIP	INDEX_PIP	INDEX_MCP	MIDDLE_TIP	MIDDLE_DIP	MIDDLE_PIP	MIDDLE_MCP	RING_TIP	RING_DIP	RING_PIP	RING_MCP	PINKY_TIP	PINKY_DIP	PINKY_PIP	PINKY_MCP	WRIST
X1	Y1	Z1	X2	Y2	Z2	X3	Y3	Z3	X4	Y4	Z4	X5	Y5	Z5	X6	Y6	Z6	X7	Y7	Z7	X8	Y8	Z8	X9	Y9	Z9	X10	Y10	Z10	X11	Y11	Z11	X12	Y12	Z12	X13	Y13	Z13	X14	Y14	Z14	X15	Y15	Z15	X16	Y16	Z16	X17	Y17	Z17	X18	Y18	Z18	X19	Y19	Z19	X20	Y20	Z20	X21	Y21	Z21
46	1.5666666666666598	0.49715715459380305	-0.009928512480615326	-0.1658621052915772	0.4923031007367169	-0.015314298686094796	-0.14405771426358988	0.4698764353621858	-0.019992445175766038	-0.12298689022654795	0.47050964372578685	-0.027621772178029302	-0.07904053182609792	0.5790073573049339	0.029080801247044707	-0.1530219356514843	0.5623763524829507	0.02815097572041203	-0.14591242771484103	0.5394834431494738	0.026146620876978832	-0.1357189446540411	0.5040792555118593	0.0122354286855203	-0.11657062035312932	0.5979796821445097	0.038944921685553524	-0.13154922566220756	0.5809027062906333	0.03615470985275904	-0.126202113019458	0.5538056566013863	0.03227521579371506	-0.11619666580384994	0.5154547202124322	0.017281150923149413	-0.09886081803837614	0.6026140669010529	0.030128031704192648	-0.10731250106279674	0.5857173377770024	0.029377550378372308	-0.10107252328334415	0.562142668654677	0.028584621216778627	-0.09308589582755455	0.5252143560737036	0.016120965388057185	-0.08233053217470185	0.599234378744551	0.025008821478625043	-0.07783924334914864	0.5828158041843641	0.022032555696021694	-0.0740218815110614	0.5625671123902071	0.018006232274251688	-0.0702020360523358	0.5289606687771978	0.006201662805731423	-0.06453259707228534	0.4622830810018608	-0.023011742144276925	-0.051989820119430985
47	1.599999999999993	0.4999496142635591	-0.005913154874727211	-0.16374526711830872	0.49369693127511083	-0.01243941914527169	-0.14261917353437836	0.4705998812024388	-0.01875249437127091	-0.12273220898140158	0.47061408427938745	-0.027605438861489362	-0.07901133099243945	0.5791528025590841	0.029039078616474034	-0.15268710810591782	0.5624848099328955	0.02787472671060698	-0.1456998120299935	0.5395454794654744	0.025765482659938943	-0.13563263565122852	0.5038561740344112	0.012405690104649758	-0.11662144119301719	0.5980259685108509	0.03828477073976655	-0.13174899895119407	0.5809404619067029	0.03543386665013626	-0.12646148441680807	0.5538166764529807	0.031639048866731634	-0.11649608574684957	0.5152613635974203	0.01738614679794237	-0.09898921411804752	0.6023004697435187	0.031594459036450195	-0.1076159991427691	0.585429989428533	0.030247930918391397	-0.10140522173821181	0.5618825377366108	0.02884257404005086	-0.09342258621721433	0.525039365664472	0.01624486029990313	-0.0825322641749572	0.5986065672107184	0.02677213866833461	-0.0785635640621789	0.5823000823430938	0.023311323067240486	-0.07467495163135573	0.5621852727061147	0.01875335619790508	-0.07074667080049252	0.5288445638947058	0.006377724830584297	-0.06473631846364622	0.4622830810018609	-0.023011742144276925	-0.051989820119430985
49	1.633333333333334	0.5030910417207566	-0.0025900500128896997	-0.1612506971085334	0.4952712304840291	-0.010072751472544828	-0.14098102194863948	0.4714671802290301	-0.017726549076014786	-0.12244439405404667	0.47078161585202927	-0.027630196781054384	-0.07895488079372774	0.5795714607210074	0.02868377108493203	-0.1525277587806444	0.5628891943470264	0.027211771673710472	-0.14563318073982784	0.539943804749025	0.024915182907153444	-0.13562095774824162	0.5039932620418941	0.012320457139421204	-0.1165797535873074	0.5985213400341358	0.03754432525888696	-0.13141319097029291	0.5814158831452958	0.03448486122714167	-0.12630995430495073	0.5542331262989658	0.03061487896716919	-0.11653598287360277	0.5153913121085448	0.01722125696902943	-0.09898399491873701	0.6022847058825344	0.03355313415945416	-0.10723779782479759	0.5854494280378684	0.03125559163820435	-0.10121328803096799	0.5619234006350614	0.028872818418513746	-0.09340122009565782	0.5251388739579037	0.016069609857767064	-0.08255238229211895	0.5981923275416869	0.028542588269882097	-0.07826924025690334	0.5820017364055159	0.024416424217627575	-0.0745490885294568	0.5620233205715226	0.019190400771367133	-0.07075915466417873	0.5288898452020674	0.006259073978198693	-0.06477274937302194	0.4622830810018609	-0.023011742144276925	-0.051989820119430985
50	1.6666666666666674	0.5057816085636042	1.8791020577335615e-06	-0.15889987398545002	0.4965771568665548	-0.008205072635360633	-0.13951111404221558	0.4722324795624455	-0.016890037005068192	-0.12216960081944006	0.4709383124974077	-0.027658705639421854	-0.0789000860607643	0.5799683001361559	0.028357847000374248	-0.15248118156069257	0.5632907143382467	0.026587378054389155	-0.1456457172995994	0.5403619642282762	0.024091713546594784	-0.1356430221598352	0.5042335721186599	0.012159805807427593	-0.11651176618230413	0.599057660103604	0.03690975312949951	-0.13096723991995352	0.5819370286576666	0.03363173283551746	-0.12605413887838848	0.55469860806347	0.02964217758999599	-0.11648536453281118	0.5156068792980898	0.01698385350534981	-0.09894251714414574	0.6022737036524286	0.035440147908905484	-0.10669046929275985	0.5855138435051856	0.03222286352469739	-0.10088046335162787	0.5620402616482707	0.02886662335555845	-0.09327082566420962	0.5253171487310383	0.01580470285601976	-0.08252280051854058	0.5978728213697964	0.030067031218658613	-0.0776038033995742	0.5817962174368724	0.025331466900124555	-0.07412282127251235	0.5619464524429719	0.019493285609093802	-0.07055708321427237	0.5289801223229509	0.006054938427365042	-0.0647678384931441	0.4622830810018609	-0.023011742144276925	-0.051989820119430985
51	1.7000000000000006	0.5079444893808787	0.0017955361974028028	-0.1569120323616951	0.4975881064004636	-0.006887547298082719	-0.1383284537888422	0.47284795244305056	-0.0162795812568598	-0.12194143208626666	0.47107037410900876	-0.02768518698120792	-0.07885265891590282	0.5803283676001477	0.028125108500786422	-0.152473164120663	0.563665658392808	0.02609735279273029	-0.1456729928978123	0.5407641486764182	0.02341435413639492	-0.13565639647386635	0.5045350658569994	0.011966741902088018	-0.11641992522270807	0.5995859767878224	0.03642515737543084	-0.13044364360305094	0.5824534021629062	0.03295266219490356	-0.1257090196535816	0.5551646863839079	0.028828941915237882	-0.11634256503146727	0.5158692077051624	0.0167236916359238	-0.09886468781243901	0.6022640123747739	0.03706333568175246	-0.10604636865622541	0.5856000878469282	0.03306856361042465	-0.10044677800793643	0.5621980553775007	0.028860209639875345	-0.09304308891678573	0.5255349295019778	0.015512547188204384	-0.08244233695705094	0.5976693443922365	0.031233644592851828	-0.07666267320545385	0.5816864536168145	0.026013332596874994	-0.07345400601710458	0.5619399353734341	0.01968378808811755	-0.07016403602096374	0.5290896654650927	0.005824599759743587	-0.06471737494946411	0.4622830810018609	-0.023011742144276925	-0.051989820119430985
